<svg xmlns="http://www.w3.org/2000/svg" viewBox="0 0 64 64" fill="none" aria-hidden="true">
  <circle cx="32" cy="32" r="30" fill="#F7931A"/>
  <circle cx="32" cy="32" r="28" fill="none" stroke="rgba(0,0,0,0.08)" stroke-width="1"/>
  <path fill="#fff" d="M42.3 27.8c.9-6-3.6-8.2-9.8-10l2-8.1-5-.9-2 7.8c-1.3-.3-2.7-.5-4.1-.7l2-7.9-5-.9-2 8.1c-1.1-.2-2.1-.4-3.1-.6l.1-.1-6.9-1.4-1.3 5.2s3.7.9 3.6 1c2 .4 2.4 1.4 2.3 2.2l-2.4 9.7c.2 0 .3.1.5.2h-.5l-3.4 13.5c-.3.7-1 1.8-2.7 1.4.1.1-3.6-.9-3.6-.9l-2.4 5.6 6.6 1.3c1.2.2 2.4.5 3.6.7l-2 8.3 5 .9 2-8.1c1.4.4 2.7.7 4 .9l-2 8.1 5 .9 2-8.2c8.6 1.6 15-1 17.7-7.1 2.2-4.7 1.1-8.3-2.6-10.4 3.8-.9 6.6-3.5 7.5-8.8zm-13.4 19.1c-1.5 6.1-11.8 2.8-15.2 2l2.7-10.8c3.3.8 14 2.4 12.5 8.8zm1.5-15.7c-1.4 5.5-9.4 2.7-12 2.1l2.4-9.8c2.7.6 11.2 1.8 9.6 7.7z"/>
</svg>
